# xmcd CD database file
#
# Track frame offsets:
#	150
#	13690
#	32556
#	50965
#	63962
#	80200
#	94576
#	112428
#	125308
#	140181
#
# Disc length: 2056 seconds
#
# Revision: 0
# Processed by: cddbd v1.5PL3 Copyright (c) Steve Scherf et al.
# Submitted via: CDex 1.50
#
DISCID=9408060a
DTITLE=Betty Lynn Cade - Betty Lynn Cade
DYEAR=1998
DGENRE=Country
TTITLE0=I Could Be Persuaded
TTITLE1=I Was The One
TTITLE2=How Do I Break It To My Heart
TTITLE3=Do What You Did
TTITLE4=For No Reason At All
TTITLE5=Dream On
TTITLE6=Get Out Of My Way
TTITLE7=You Better Do Better
TTITLE8=Lookin' For The Next Best Thing
TTITLE9=Why Have You Left The One You Left Me For
EXTD=YEAR: 1998
EXTT0=
EXTT1=
EXTT2=
EXTT3=
EXTT4=
EXTT5=
EXTT6=
EXTT7=
EXTT8=
EXTT9=
PLAYORDER=
